<svg id="visual" viewBox="0 0 900 600" width="900" height="600" xmlns="http://www.w3.org/2000/svg" xmlns:xlink="http://www.w3.org/1999/xlink" version="1.1"><rect x="0" y="0" width="900" height="600" fill="#001220"></rect><path d="M0 214L25 214C50 214 100 214 150 203.8C200 193.7 250 173.3 300 164.8C350 156.3 400 159.7 450 168.5C500 177.3 550 191.7 600 197.8C650 204 700 202 750 194.8C800 187.7 850 175.3 875 169.2L900 163L900 0L875 0C850 0 800 0 750 0C700 0 650 0 600 0C550 0 500 0 450 0C400 0 350 0 300 0C250 0 200 0 150 0C100 0 50 0 25 0L0 0Z" fill="#fa7268"></path><path d="M0 123L25 127C50 131 100 139 150 135.3C200 131.7 250 116.3 300 111.8C350 107.3 400 113.7 450 121C500 128.3 550 136.7 600 137.7C650 138.7 700 132.3 750 129C800 125.7 850 125.3 875 125.2L900 125L900 0L875 0C850 0 800 0 750 0C700 0 650 0 600 0C550 0 500 0 450 0C400 0 350 0 300 0C250 0 200 0 150 0C100 0 50 0 25 0L0 0Z" fill="#e34c67"></path><path d="M0 66L25 69.3C50 72.7 100 79.3 150 82.3C200 85.3 250 84.7 300 82.5C350 80.3 400 76.7 450 77.7C500 78.7 550 84.3 600 82.2C650 80 700 70 750 65C800 60 850 60 875 60L900 60L900 0L875 0C850 0 800 0 750 0C700 0 650 0 600 0C550 0 500 0 450 0C400 0 350 0 300 0C250 0 200 0 150 0C100 0 50 0 25 0L0 0Z" fill="#c62368"></path></svg>