<svg id="visual" viewBox="0 0 900 600" width="900" height="600" xmlns="http://www.w3.org/2000/svg" xmlns:xlink="http://www.w3.org/1999/xlink" version="1.1"><g stroke-width="1" stroke-linejoin="bevel"><path d="M413.4 312.3L396.4 237L382.4 295.7Z" fill="#297ea6" stroke="#297ea6"></path><path d="M396.4 237L373.2 283.7L382.4 295.7Z" fill="#15384f" stroke="#15384f"></path><path d="M413.4 312.3L502.6 232.7L396.4 237Z" fill="#277297" stroke="#277297"></path><path d="M477.6 331.3L502.6 232.7L413.4 312.3Z" fill="#205a7a" stroke="#205a7a"></path><path d="M343.2 372.3L437.4 367L413.4 312.3Z" fill="#1d4e6b" stroke="#1d4e6b"></path><path d="M413.4 312.3L437.4 367L477.6 331.3Z" fill="#0c2435" stroke="#0c2435"></path><path d="M550.8 312.3L525.8 288.7L477.6 331.3Z" fill="#246688" stroke="#246688"></path><path d="M477.6 331.3L525.8 288.7L502.6 232.7Z" fill="#1d4e6b" stroke="#1d4e6b"></path><path d="M516.6 195L381.2 162L396.4 237Z" fill="#1d4e6b" stroke="#1d4e6b"></path><path d="M396.4 237L293.9 261.7L373.2 283.7Z" fill="#081a28" stroke="#081a28"></path><path d="M381.2 162L293.9 261.7L396.4 237Z" fill="#19435d" stroke="#19435d"></path><path d="M373.2 283.7L343.2 372.3L382.4 295.7Z" fill="#0c2435" stroke="#0c2435"></path><path d="M382.4 295.7L343.2 372.3L413.4 312.3Z" fill="#19435d" stroke="#19435d"></path><path d="M293.9 261.7L343.2 372.3L373.2 283.7Z" fill="#205a7a" stroke="#205a7a"></path><path d="M541.8 216L516.6 195L502.6 232.7Z" fill="#0c2435" stroke="#0c2435"></path><path d="M502.6 232.7L516.6 195L396.4 237Z" fill="#0c2435" stroke="#0c2435"></path><path d="M525.8 288.7L541.8 216L502.6 232.7Z" fill="#0c2435" stroke="#0c2435"></path><path d="M565.8 366L550.8 312.3L477.6 331.3Z" fill="#277297" stroke="#277297"></path><path d="M525.8 288.7L597.1 290.7L541.8 216Z" fill="#112e42" stroke="#112e42"></path><path d="M510.6 110.3L447.4 116.3L516.6 195Z" fill="#0c2435" stroke="#0c2435"></path><path d="M516.6 195L447.4 116.3L381.2 162Z" fill="#19435d" stroke="#19435d"></path><path d="M262.9 439L351.2 422L343.2 372.3Z" fill="#081a28" stroke="#081a28"></path><path d="M343.2 372.3L351.2 422L437.4 367Z" fill="#00101c" stroke="#00101c"></path><path d="M522.6 435L565.8 366L477.6 331.3Z" fill="#19435d" stroke="#19435d"></path><path d="M293.9 261.7L260.9 357.3L343.2 372.3Z" fill="#0c2435" stroke="#0c2435"></path><path d="M522.6 435L477.6 331.3L437.4 367Z" fill="#15384f" stroke="#15384f"></path><path d="M550.8 312.3L597.1 290.7L525.8 288.7Z" fill="#297ea6" stroke="#297ea6"></path><path d="M447.4 116.3L351.2 106.3L381.2 162Z" fill="#1d4e6b" stroke="#1d4e6b"></path><path d="M381.2 162L252.9 168L293.9 261.7Z" fill="#1d4e6b" stroke="#1d4e6b"></path><path d="M398.4 467.7L384.2 450.7L338.2 494.3Z" fill="#081a28" stroke="#081a28"></path><path d="M351.2 422L384.2 450.7L437.4 367Z" fill="#205a7a" stroke="#205a7a"></path><path d="M175.7 261.7L246.7 342.3L293.9 261.7Z" fill="#277297" stroke="#277297"></path><path d="M293.9 261.7L246.7 342.3L260.9 357.3Z" fill="#205a7a" stroke="#205a7a"></path><path d="M565.8 366L597.1 290.7L550.8 312.3Z" fill="#15384f" stroke="#15384f"></path><path d="M516.6 98.7L510.6 110.3L589.8 172.3Z" fill="#112e42" stroke="#112e42"></path><path d="M589.8 172.3L510.6 110.3L516.6 195Z" fill="#1d4e6b" stroke="#1d4e6b"></path><path d="M447.4 116.3L350.2 92.7L351.2 106.3Z" fill="#205a7a" stroke="#205a7a"></path><path d="M439.4 58.7L350.2 92.7L447.4 116.3Z" fill="#1d4e6b" stroke="#1d4e6b"></path><path d="M351.2 106.3L252.9 168L381.2 162Z" fill="#205a7a" stroke="#205a7a"></path><path d="M260.9 113.3L252.9 168L351.2 106.3Z" fill="#112e42" stroke="#112e42"></path><path d="M520.6 438.7L522.6 435L437.4 367Z" fill="#1d4e6b" stroke="#1d4e6b"></path><path d="M338.2 494.3L384.2 450.7L351.2 422Z" fill="#246688" stroke="#246688"></path><path d="M384.2 450.7L398.4 467.7L437.4 367Z" fill="#0c2435" stroke="#0c2435"></path><path d="M398.4 467.7L520.6 438.7L437.4 367Z" fill="#081a28" stroke="#081a28"></path><path d="M522.6 435L574.8 429.7L565.8 366Z" fill="#1d4e6b" stroke="#1d4e6b"></path><path d="M589.8 172.3L516.6 195L541.8 216Z" fill="#112e42" stroke="#112e42"></path><path d="M510.6 110.3L516.6 98.7L447.4 116.3Z" fill="#246688" stroke="#246688"></path><path d="M610.1 190L589.8 172.3L541.8 216Z" fill="#112e42" stroke="#112e42"></path><path d="M597.1 290.7L610.1 190L541.8 216Z" fill="#19435d" stroke="#19435d"></path><path d="M589.8 172.3L551.8 54.7L516.6 98.7Z" fill="#15384f" stroke="#15384f"></path><path d="M516.6 98.7L439.4 58.7L447.4 116.3Z" fill="#246688" stroke="#246688"></path><path d="M350.2 92.7L260.9 113.3L351.2 106.3Z" fill="#0c2435" stroke="#0c2435"></path><path d="M227.7 110.3L260.9 113.3L198.7 65.7Z" fill="#15384f" stroke="#15384f"></path><path d="M608.1 467.7L574.8 429.7L520.6 438.7Z" fill="#0c2435" stroke="#0c2435"></path><path d="M520.6 438.7L574.8 429.7L522.6 435Z" fill="#277297" stroke="#277297"></path><path d="M565.8 366L657.1 370.3L597.1 290.7Z" fill="#205a7a" stroke="#205a7a"></path><path d="M228.7 430L262.9 439L260.9 357.3Z" fill="#0c2435" stroke="#0c2435"></path><path d="M260.9 357.3L262.9 439L343.2 372.3Z" fill="#297ea6" stroke="#297ea6"></path><path d="M279.9 482.7L338.2 494.3L351.2 422Z" fill="#112e42" stroke="#112e42"></path><path d="M398.4 467.7L452.6 521.3L520.6 438.7Z" fill="#15384f" stroke="#15384f"></path><path d="M176.7 207L293.9 261.7L252.9 168Z" fill="#205a7a" stroke="#205a7a"></path><path d="M176.7 207L175.7 261.7L293.9 261.7Z" fill="#15384f" stroke="#15384f"></path><path d="M246.7 342.3L228.7 430L260.9 357.3Z" fill="#246688" stroke="#246688"></path><path d="M197.7 447.7L228.7 430L146.5 421Z" fill="#1d4e6b" stroke="#1d4e6b"></path><path d="M262.9 439L279.9 482.7L351.2 422Z" fill="#205a7a" stroke="#205a7a"></path><path d="M610.1 190L628.1 152.3L589.8 172.3Z" fill="#00101c" stroke="#00101c"></path><path d="M516.6 98.7L487.6 0L439.4 58.7Z" fill="#00101c" stroke="#00101c"></path><path d="M670.3 233L628.1 152.3L610.1 190Z" fill="#205a7a" stroke="#205a7a"></path><path d="M670.3 233L610.1 190L597.1 290.7Z" fill="#297ea6" stroke="#297ea6"></path><path d="M166.5 168.3L176.7 207L252.9 168Z" fill="#00101c" stroke="#00101c"></path><path d="M297.9 26.7L260.9 113.3L350.2 92.7Z" fill="#1d4e6b" stroke="#1d4e6b"></path><path d="M260.9 113.3L227.7 110.3L252.9 168Z" fill="#1d4e6b" stroke="#1d4e6b"></path><path d="M228.7 430L279.9 482.7L262.9 439Z" fill="#1d4e6b" stroke="#1d4e6b"></path><path d="M453.4 528.3L452.6 521.3L338.2 494.3Z" fill="#0c2435" stroke="#0c2435"></path><path d="M338.2 494.3L452.6 521.3L398.4 467.7Z" fill="#0c2435" stroke="#0c2435"></path><path d="M608.1 467.7L622.1 418L574.8 429.7Z" fill="#205a7a" stroke="#205a7a"></path><path d="M574.8 429.7L622.1 418L565.8 366Z" fill="#112e42" stroke="#112e42"></path><path d="M279.9 482.7L305.9 504.3L338.2 494.3Z" fill="#112e42" stroke="#112e42"></path><path d="M628.1 152.3L551.8 54.7L589.8 172.3Z" fill="#081a28" stroke="#081a28"></path><path d="M685.3 267.7L670.3 233L597.1 290.7Z" fill="#277297" stroke="#277297"></path><path d="M379.2 600L453.4 528.3L338.2 494.3Z" fill="#297ea6" stroke="#297ea6"></path><path d="M452.6 521.3L559.8 547.3L520.6 438.7Z" fill="#0c2435" stroke="#0c2435"></path><path d="M622.1 418L657.1 370.3L565.8 366Z" fill="#15384f" stroke="#15384f"></path><path d="M150.5 205L147.5 242.7L176.7 207Z" fill="#112e42" stroke="#112e42"></path><path d="M176.7 207L147.5 242.7L175.7 261.7Z" fill="#00101c" stroke="#00101c"></path><path d="M146.5 421L228.7 430L246.7 342.3Z" fill="#112e42" stroke="#112e42"></path><path d="M227.7 110.3L166.5 168.3L252.9 168Z" fill="#297ea6" stroke="#297ea6"></path><path d="M657.1 370.3L685.3 267.7L597.1 290.7Z" fill="#00101c" stroke="#00101c"></path><path d="M365.2 0L350.2 92.7L439.4 58.7Z" fill="#19435d" stroke="#19435d"></path><path d="M365.2 0L297.9 26.7L350.2 92.7Z" fill="#0c2435" stroke="#0c2435"></path><path d="M227.7 110.3L198.7 65.7L166.5 168.3Z" fill="#297ea6" stroke="#297ea6"></path><path d="M487.6 0L415.4 0L439.4 58.7Z" fill="#081a28" stroke="#081a28"></path><path d="M166.5 168.3L150.5 205L176.7 207Z" fill="#277297" stroke="#277297"></path><path d="M559.8 547.3L608.1 467.7L520.6 438.7Z" fill="#112e42" stroke="#112e42"></path><path d="M622.1 418L689.3 383L657.1 370.3Z" fill="#277297" stroke="#277297"></path><path d="M415.4 0L365.2 0L439.4 58.7Z" fill="#297ea6" stroke="#297ea6"></path><path d="M228.7 430L197.7 447.7L279.9 482.7Z" fill="#1d4e6b" stroke="#1d4e6b"></path><path d="M279.9 482.7L233.7 554.3L305.9 504.3Z" fill="#1d4e6b" stroke="#1d4e6b"></path><path d="M136.5 324.3L246.7 342.3L175.7 261.7Z" fill="#00101c" stroke="#00101c"></path><path d="M551.8 54.7L487.6 0L516.6 98.7Z" fill="#15384f" stroke="#15384f"></path><path d="M73.2 294.3L136.5 324.3L147.5 242.7Z" fill="#00101c" stroke="#00101c"></path><path d="M147.5 242.7L136.5 324.3L175.7 261.7Z" fill="#297ea6" stroke="#297ea6"></path><path d="M365.2 0L311.9 0L297.9 26.7Z" fill="#00101c" stroke="#00101c"></path><path d="M297.9 26.7L198.7 65.7L260.9 113.3Z" fill="#00101c" stroke="#00101c"></path><path d="M714.3 453.7L689.3 383L622.1 418Z" fill="#112e42" stroke="#112e42"></path><path d="M657.1 370.3L717.3 318.3L685.3 267.7Z" fill="#00101c" stroke="#00101c"></path><path d="M210.7 0L198.7 65.7L297.9 26.7Z" fill="#00101c" stroke="#00101c"></path><path d="M166.5 168.3L95.2 192L150.5 205Z" fill="#205a7a" stroke="#205a7a"></path><path d="M551.8 54.7L541.8 0L487.6 0Z" fill="#1d4e6b" stroke="#1d4e6b"></path><path d="M624.1 0L541.8 0L551.8 54.7Z" fill="#1d4e6b" stroke="#1d4e6b"></path><path d="M728.5 227.7L670.3 233L685.3 267.7Z" fill="#0c2435" stroke="#0c2435"></path><path d="M728.5 227.7L699.3 166.3L670.3 233Z" fill="#297ea6" stroke="#297ea6"></path><path d="M670.3 233L699.3 166.3L628.1 152.3Z" fill="#00101c" stroke="#00101c"></path><path d="M628.1 152.3L650.1 34.7L551.8 54.7Z" fill="#246688" stroke="#246688"></path><path d="M689.3 383L717.3 318.3L657.1 370.3Z" fill="#277297" stroke="#277297"></path><path d="M136.5 324.3L146.5 421L246.7 342.3Z" fill="#15384f" stroke="#15384f"></path><path d="M376.4 600L338.2 494.3L305.9 504.3Z" fill="#112e42" stroke="#112e42"></path><path d="M453.4 528.3L559.8 547.3L452.6 521.3Z" fill="#205a7a" stroke="#205a7a"></path><path d="M608.1 467.7L714.3 453.7L622.1 418Z" fill="#112e42" stroke="#112e42"></path><path d="M452.6 600L559.8 547.3L453.4 528.3Z" fill="#19435d" stroke="#19435d"></path><path d="M717.3 318.3L728.5 227.7L685.3 267.7Z" fill="#112e42" stroke="#112e42"></path><path d="M376.4 600L305.9 504.3L271.9 600Z" fill="#19435d" stroke="#19435d"></path><path d="M376.4 600L379.2 600L338.2 494.3Z" fill="#00101c" stroke="#00101c"></path><path d="M75.2 170.3L95.2 192L166.5 168.3Z" fill="#15384f" stroke="#15384f"></path><path d="M150.5 205L95.2 192L147.5 242.7Z" fill="#246688" stroke="#246688"></path><path d="M88.2 508.3L144.5 477.7L43.2 439.7Z" fill="#00101c" stroke="#00101c"></path><path d="M379.2 600L452.6 600L453.4 528.3Z" fill="#00101c" stroke="#00101c"></path><path d="M233.7 554.3L279.9 482.7L197.7 447.7Z" fill="#081a28" stroke="#081a28"></path><path d="M679.3 40.7L628.1 152.3L699.3 166.3Z" fill="#1d4e6b" stroke="#1d4e6b"></path><path d="M679.3 40.7L650.1 34.7L628.1 152.3Z" fill="#081a28" stroke="#081a28"></path><path d="M168.5 512.3L233.7 554.3L197.7 447.7Z" fill="#1d4e6b" stroke="#1d4e6b"></path><path d="M40.2 409L146.5 421L136.5 324.3Z" fill="#246688" stroke="#246688"></path><path d="M146.5 421L144.5 477.7L197.7 447.7Z" fill="#246688" stroke="#246688"></path><path d="M571.8 600L598.1 559.3L559.8 547.3Z" fill="#0c2435" stroke="#0c2435"></path><path d="M559.8 547.3L598.1 559.3L608.1 467.7Z" fill="#246688" stroke="#246688"></path><path d="M311.9 0L210.7 0L297.9 26.7Z" fill="#1d4e6b" stroke="#1d4e6b"></path><path d="M121.5 69.7L75.2 170.3L166.5 168.3Z" fill="#15384f" stroke="#15384f"></path><path d="M55.2 230.7L73.2 294.3L147.5 242.7Z" fill="#0c2435" stroke="#0c2435"></path><path d="M650.1 34.7L624.1 0L551.8 54.7Z" fill="#15384f" stroke="#15384f"></path><path d="M144.5 477.7L168.5 512.3L197.7 447.7Z" fill="#081a28" stroke="#081a28"></path><path d="M671.3 513.3L714.3 453.7L608.1 467.7Z" fill="#246688" stroke="#246688"></path><path d="M804.8 387L800.5 335.3L717.3 318.3Z" fill="#15384f" stroke="#15384f"></path><path d="M791.5 193L770.5 162.3L728.5 227.7Z" fill="#205a7a" stroke="#205a7a"></path><path d="M770.5 162.3L679.3 40.7L699.3 166.3Z" fill="#246688" stroke="#246688"></path><path d="M650.1 34.7L693.3 0L624.1 0Z" fill="#1d4e6b" stroke="#1d4e6b"></path><path d="M598.1 559.3L671.3 513.3L608.1 467.7Z" fill="#15384f" stroke="#15384f"></path><path d="M121.5 69.7L166.5 168.3L198.7 65.7Z" fill="#112e42" stroke="#112e42"></path><path d="M95.2 192L55.2 230.7L147.5 242.7Z" fill="#246688" stroke="#246688"></path><path d="M136.5 0L121.5 69.7L198.7 65.7Z" fill="#081a28" stroke="#081a28"></path><path d="M233.7 554.3L271.9 600L305.9 504.3Z" fill="#246688" stroke="#246688"></path><path d="M175.5 600L271.9 600L233.7 554.3Z" fill="#205a7a" stroke="#205a7a"></path><path d="M75.2 170.3L55.2 230.7L95.2 192Z" fill="#112e42" stroke="#112e42"></path><path d="M452.6 600L571.8 600L559.8 547.3Z" fill="#15384f" stroke="#15384f"></path><path d="M598.1 559.3L615.1 600L671.3 513.3Z" fill="#205a7a" stroke="#205a7a"></path><path d="M798.8 265.7L728.5 227.7L717.3 318.3Z" fill="#1d4e6b" stroke="#1d4e6b"></path><path d="M728.5 227.7L770.5 162.3L699.3 166.3Z" fill="#277297" stroke="#277297"></path><path d="M741.5 484.7L759.5 438L714.3 453.7Z" fill="#19435d" stroke="#19435d"></path><path d="M714.3 453.7L759.5 438L689.3 383Z" fill="#081a28" stroke="#081a28"></path><path d="M741.5 484.7L714.3 453.7L671.3 513.3Z" fill="#112e42" stroke="#112e42"></path><path d="M571.8 600L615.1 600L598.1 559.3Z" fill="#00101c" stroke="#00101c"></path><path d="M800.5 335.3L798.8 265.7L717.3 318.3Z" fill="#15384f" stroke="#15384f"></path><path d="M798.8 265.7L791.5 193L728.5 227.7Z" fill="#277297" stroke="#277297"></path><path d="M210.7 0L136.5 0L198.7 65.7Z" fill="#246688" stroke="#246688"></path><path d="M121.5 69.7L68.2 71.7L75.2 170.3Z" fill="#081a28" stroke="#081a28"></path><path d="M777.5 27.7L693.3 0L679.3 40.7Z" fill="#00101c" stroke="#00101c"></path><path d="M679.3 40.7L693.3 0L650.1 34.7Z" fill="#19435d" stroke="#19435d"></path><path d="M777.5 27.7L679.3 40.7L770.5 162.3Z" fill="#081a28" stroke="#081a28"></path><path d="M734.5 522.3L741.5 484.7L671.3 513.3Z" fill="#1d4e6b" stroke="#1d4e6b"></path><path d="M804.8 387L689.3 383L759.5 438Z" fill="#00101c" stroke="#00101c"></path><path d="M804.8 387L717.3 318.3L689.3 383Z" fill="#205a7a" stroke="#205a7a"></path><path d="M0 336.3L40.2 409L73.2 294.3Z" fill="#205a7a" stroke="#205a7a"></path><path d="M73.2 294.3L40.2 409L136.5 324.3Z" fill="#15384f" stroke="#15384f"></path><path d="M144.5 477.7L88.2 508.3L168.5 512.3Z" fill="#081a28" stroke="#081a28"></path><path d="M168.5 512.3L175.5 600L233.7 554.3Z" fill="#246688" stroke="#246688"></path><path d="M136.5 0L68.2 71.7L121.5 69.7Z" fill="#15384f" stroke="#15384f"></path><path d="M0 213L0 243.7L55.2 230.7Z" fill="#19435d" stroke="#19435d"></path><path d="M55.2 230.7L0 243.7L73.2 294.3Z" fill="#205a7a" stroke="#205a7a"></path><path d="M43.2 439.7L144.5 477.7L146.5 421Z" fill="#00101c" stroke="#00101c"></path><path d="M170.7 600L175.5 600L168.5 512.3Z" fill="#19435d" stroke="#19435d"></path><path d="M705.3 600L734.5 522.3L671.3 513.3Z" fill="#081a28" stroke="#081a28"></path><path d="M821.8 502.7L804.8 387L759.5 438Z" fill="#246688" stroke="#246688"></path><path d="M821.8 502.7L759.5 438L741.5 484.7Z" fill="#112e42" stroke="#112e42"></path><path d="M833.8 153.3L821.8 169L900 200Z" fill="#112e42" stroke="#112e42"></path><path d="M40.2 409L43.2 439.7L146.5 421Z" fill="#277297" stroke="#277297"></path><path d="M88.2 508.3L170.7 600L168.5 512.3Z" fill="#15384f" stroke="#15384f"></path><path d="M0 213L55.2 230.7L75.2 170.3Z" fill="#297ea6" stroke="#297ea6"></path><path d="M40.2 409L0 402L43.2 439.7Z" fill="#19435d" stroke="#19435d"></path><path d="M0 162.3L0 213L75.2 170.3Z" fill="#112e42" stroke="#112e42"></path><path d="M0 243.7L0 336.3L73.2 294.3Z" fill="#297ea6" stroke="#297ea6"></path><path d="M900 228.7L821.8 169L791.5 193Z" fill="#246688" stroke="#246688"></path><path d="M791.5 193L821.8 169L770.5 162.3Z" fill="#19435d" stroke="#19435d"></path><path d="M791.5 193L798.8 265.7L900 228.7Z" fill="#19435d" stroke="#19435d"></path><path d="M68.2 71.7L0 162.3L75.2 170.3Z" fill="#277297" stroke="#277297"></path><path d="M0 336.3L0 402L40.2 409Z" fill="#0c2435" stroke="#0c2435"></path><path d="M43.2 439.7L0 455.7L88.2 508.3Z" fill="#246688" stroke="#246688"></path><path d="M859.8 298.3L798.8 265.7L800.5 335.3Z" fill="#277297" stroke="#277297"></path><path d="M821.8 169L833.8 153.3L770.5 162.3Z" fill="#0c2435" stroke="#0c2435"></path><path d="M833.8 153.3L777.5 27.7L770.5 162.3Z" fill="#112e42" stroke="#112e42"></path><path d="M615.1 600L705.3 600L671.3 513.3Z" fill="#205a7a" stroke="#205a7a"></path><path d="M734.5 522.3L821.8 502.7L741.5 484.7Z" fill="#246688" stroke="#246688"></path><path d="M900 359.3L800.5 335.3L804.8 387Z" fill="#15384f" stroke="#15384f"></path><path d="M900 359.3L859.8 298.3L800.5 335.3Z" fill="#112e42" stroke="#112e42"></path><path d="M0 402L0 455.7L43.2 439.7Z" fill="#19435d" stroke="#19435d"></path><path d="M88.2 508.3L43.2 600L170.7 600Z" fill="#205a7a" stroke="#205a7a"></path><path d="M136.5 0L38.2 0L68.2 71.7Z" fill="#246688" stroke="#246688"></path><path d="M68.2 71.7L0 57.7L0 162.3Z" fill="#297ea6" stroke="#297ea6"></path><path d="M38.2 0L0 57.7L68.2 71.7Z" fill="#081a28" stroke="#081a28"></path><path d="M821.8 553.3L821.8 502.7L734.5 522.3Z" fill="#112e42" stroke="#112e42"></path><path d="M812.8 0L798.5 0L777.5 27.7Z" fill="#277297" stroke="#277297"></path><path d="M777.5 27.7L798.5 0L693.3 0Z" fill="#297ea6" stroke="#297ea6"></path><path d="M854.8 60.7L812.8 0L777.5 27.7Z" fill="#112e42" stroke="#112e42"></path><path d="M854.8 60.7L777.5 27.7L833.8 153.3Z" fill="#00101c" stroke="#00101c"></path><path d="M900 359.3L900 228.7L859.8 298.3Z" fill="#081a28" stroke="#081a28"></path><path d="M859.8 298.3L900 228.7L798.8 265.7Z" fill="#246688" stroke="#246688"></path><path d="M900 94.7L854.8 60.7L833.8 153.3Z" fill="#0c2435" stroke="#0c2435"></path><path d="M900 228.7L900 200L821.8 169Z" fill="#0c2435" stroke="#0c2435"></path><path d="M900 397L900 359.3L804.8 387Z" fill="#112e42" stroke="#112e42"></path><path d="M795.5 600L821.8 553.3L734.5 522.3Z" fill="#0c2435" stroke="#0c2435"></path><path d="M900 481.7L900 397L804.8 387Z" fill="#1d4e6b" stroke="#1d4e6b"></path><path d="M0 561.3L43.2 600L88.2 508.3Z" fill="#0c2435" stroke="#0c2435"></path><path d="M38.2 0L0 0L0 57.7Z" fill="#15384f" stroke="#15384f"></path><path d="M900 481.7L804.8 387L821.8 502.7Z" fill="#277297" stroke="#277297"></path><path d="M705.3 600L795.5 600L734.5 522.3Z" fill="#0c2435" stroke="#0c2435"></path><path d="M900 200L900 138.3L833.8 153.3Z" fill="#112e42" stroke="#112e42"></path><path d="M0 455.7L0 561.3L88.2 508.3Z" fill="#277297" stroke="#277297"></path><path d="M900 138.3L900 94.7L833.8 153.3Z" fill="#112e42" stroke="#112e42"></path><path d="M854.8 60.7L900 0L812.8 0Z" fill="#205a7a" stroke="#205a7a"></path><path d="M795.5 600L814.8 600L821.8 553.3Z" fill="#277297" stroke="#277297"></path><path d="M900 494.3L900 481.7L821.8 502.7Z" fill="#19435d" stroke="#19435d"></path><path d="M900 494.3L821.8 502.7L821.8 553.3Z" fill="#205a7a" stroke="#205a7a"></path><path d="M0 561.3L0 600L43.2 600Z" fill="#1d4e6b" stroke="#1d4e6b"></path><path d="M900 600L900 494.3L821.8 553.3Z" fill="#112e42" stroke="#112e42"></path><path d="M900 94.7L900 0L854.8 60.7Z" fill="#277297" stroke="#277297"></path><path d="M814.8 600L900 600L821.8 553.3Z" fill="#277297" stroke="#277297"></path></g></svg>